<svg xmlns="http://www.w3.org/2000/svg" viewBox="0 0 640 640"><!--!Font Awesome Pro 7.0.0 by @fontawesome - https://fontawesome.com License - https://fontawesome.com/license (Commercial License) Copyright 2025 Fonticons, Inc.--><path opacity=".4" d="M97 500.2L306 113.2C315.1 109.9 325.2 110 334.3 113.5L543 500.2C544.3 502.7 544.3 505.7 542.8 508.1C541.3 510.5 538.7 512 535.9 512L104 512C101.2 512 98.6 510.5 97.1 508.1C95.6 505.7 95.6 502.7 96.9 500.2zM300 449.3C300 460.3 309 469.3 320 469.3C331 469.3 340 460.3 340 449.3C340 438.3 331 429.3 320 429.3C309 429.3 300 438.3 300 449.3zM304 256L304 384C304 392.8 311.2 400 320 400C328.8 400 336 392.8 336 384L336 256C336 247.2 328.8 240 320 240C311.2 240 304 247.2 304 256z"/><path d="M320 96C322.9 96 325.6 97.6 327 100.2L543 500.2C544.3 502.7 544.3 505.7 542.8 508.1C541.3 510.5 538.7 512 535.9 512L104 512C101.2 512 98.6 510.5 97.1 508.1C95.6 505.7 95.6 502.7 96.9 500.2L312.9 100.2C314.3 97.6 317 96 319.9 96zM355.2 85C348.2 72.1 334.7 64 320 64C305.3 64 291.8 72.1 284.8 85L68.8 485C62.1 497.4 62.4 512.4 69.6 524.5C76.8 536.6 89.9 544 104 544L536 544C550.1 544 563.1 536.6 570.4 524.5C577.7 512.4 577.9 497.4 571.2 485L355.2 85zM320 240C311.2 240 304 247.2 304 256L304 384C304 392.8 311.2 400 320 400C328.8 400 336 392.8 336 384L336 256C336 247.2 328.8 240 320 240zM340 449.3C340 438.3 331 429.3 320 429.3C309 429.3 300 438.3 300 449.3C300 460.3 309 469.3 320 469.3C331 469.3 340 460.3 340 449.3z"/></svg>