<?xml version="1.0" encoding="UTF-8" standalone="no"?>
<svg
   viewBox="0 0 516 512"
   version="1.1"
   id="svg1"
   width="516"
   height="512"
   xmlns="http://www.w3.org/2000/svg"
   xmlns:svg="http://www.w3.org/2000/svg">
  <defs
     id="defs1" />
  <path
     id="path1"
     style="fill:#e2c431;fill-opacity:1"
     d="M 306.44727 97.177734 L 280.88477 16.699219 C 277.68477 6.7992286 268.48436 -2.3684734e-15 257.98438 0 C 247.48439 0 238.28398 6.7992287 235.08398 16.699219 L 184.48438 176 L 25.984375 176 C 15.684385 176 6.5831998 182.49923 3.2832031 192.19922 C -0.016793605 201.89921 3.1832116 212.6004 11.283203 218.90039 L 142.08398 320.69922 L 91.083984 480.69922 C 87.883988 490.69921 91.583601 501.69922 100.18359 507.69922 C 108.78359 513.69921 120.3836 513.39999 128.68359 507 L 160.45508 482.28125 A 451.49338 458.90182 0 0 1 157.2832 437.21875 A 451.49338 458.90182 0 0 1 306.44727 97.177734 z " />
  <path
     id="path2"
     style="fill:#e2d031;fill-opacity:1"
     d="M 306.44727 97.177734 A 451.49338 458.90182 0 0 0 157.2832 437.21875 A 451.49338 458.90182 0 0 0 160.45508 482.28125 L 257.98438 406.40039 L 387.2832 506.90039 C 395.58319 513.40038 407.08321 513.6996 415.7832 507.59961 C 424.48319 501.49962 428.08476 490.6996 424.88477 480.59961 L 373.88477 320.69922 L 504.68359 218.90039 C 512.78359 212.6004 515.98359 201.89921 512.68359 192.19922 C 509.3836 182.49923 500.28436 176 489.98438 176 L 331.48438 176 L 306.44727 97.177734 z " />
</svg>
